<mxfile host="Electron" modified="2024-01-29T02:45:43.039Z" agent="Mozilla/5.0 (Windows NT 10.0; Win64; x64) AppleWebKit/537.36 (KHTML, like Gecko) draw.io/22.1.2 Chrome/114.0.5735.289 Electron/25.9.4 Safari/537.36" etag="Htb7_NOZmbOm5D194OMh" version="22.1.2" type="device">
  <diagram id="X2qZNkSAtzUQ2PHM2uYp" name="DER_ECOMMERCE">
    <mxGraphModel dx="1120" dy="524" grid="1" gridSize="10" guides="1" tooltips="1" connect="1" arrows="1" fold="1" page="1" pageScale="1" pageWidth="1600" pageHeight="900" math="0" shadow="0">
      <root>
        <mxCell id="0" />
        <mxCell id="1" parent="0" />
        <mxCell id="vUQXYTvta-El19TbxOo7-1" value="PRODUCTOS" style="rounded=0;whiteSpace=wrap;html=1;" parent="1" vertex="1">
          <mxGeometry x="555" y="90" width="90" height="40" as="geometry" />
        </mxCell>
        <mxCell id="vUQXYTvta-El19TbxOo7-3" value="FAVORITOS" style="rounded=0;whiteSpace=wrap;html=1;" parent="1" vertex="1">
          <mxGeometry x="920" y="90" width="90" height="40" as="geometry" />
        </mxCell>
        <mxCell id="vUQXYTvta-El19TbxOo7-4" value="USUARIOS" style="rounded=0;whiteSpace=wrap;html=1;" parent="1" vertex="1">
          <mxGeometry x="555" y="340" width="90" height="40" as="geometry" />
        </mxCell>
        <mxCell id="vUQXYTvta-El19TbxOo7-9" value="" style="endArrow=none;html=1;rounded=0;entryX=0.5;entryY=1;entryDx=0;entryDy=0;exitX=0.5;exitY=0;exitDx=0;exitDy=0;" parent="1" source="vUQXYTvta-El19TbxOo7-21" target="vUQXYTvta-El19TbxOo7-1" edge="1">
          <mxGeometry relative="1" as="geometry">
            <mxPoint x="570" y="220" as="sourcePoint" />
            <mxPoint x="830" y="280" as="targetPoint" />
          </mxGeometry>
        </mxCell>
        <mxCell id="vUQXYTvta-El19TbxOo7-11" value="" style="endArrow=none;html=1;rounded=0;exitX=0.5;exitY=1;exitDx=0;exitDy=0;entryX=0.5;entryY=0;entryDx=0;entryDy=0;" parent="1" edge="1">
          <mxGeometry relative="1" as="geometry">
            <mxPoint x="599.5" y="270" as="sourcePoint" />
            <mxPoint x="599.5" y="340" as="targetPoint" />
          </mxGeometry>
        </mxCell>
        <mxCell id="vUQXYTvta-El19TbxOo7-13" value="" style="endArrow=none;html=1;rounded=0;exitX=0;exitY=0.5;exitDx=0;exitDy=0;entryX=1;entryY=0.5;entryDx=0;entryDy=0;" parent="1" source="vUQXYTvta-El19TbxOo7-3" target="vUQXYTvta-El19TbxOo7-20" edge="1">
          <mxGeometry relative="1" as="geometry">
            <mxPoint x="1000" y="140" as="sourcePoint" />
            <mxPoint x="860" y="110" as="targetPoint" />
          </mxGeometry>
        </mxCell>
        <mxCell id="vUQXYTvta-El19TbxOo7-15" value="" style="endArrow=none;html=1;rounded=0;entryX=0;entryY=0.5;entryDx=0;entryDy=0;" parent="1" source="vUQXYTvta-El19TbxOo7-7" target="vUQXYTvta-El19TbxOo7-1" edge="1">
          <mxGeometry relative="1" as="geometry">
            <mxPoint x="410" y="110" as="sourcePoint" />
            <mxPoint x="500" y="110" as="targetPoint" />
          </mxGeometry>
        </mxCell>
        <mxCell id="vUQXYTvta-El19TbxOo7-17" value="" style="endArrow=none;html=1;rounded=0;entryX=0;entryY=0.5;entryDx=0;entryDy=0;exitX=1;exitY=0.5;exitDx=0;exitDy=0;" parent="1" source="vUQXYTvta-El19TbxOo7-1" edge="1">
          <mxGeometry relative="1" as="geometry">
            <mxPoint x="670" y="280" as="sourcePoint" />
            <mxPoint x="740" y="110" as="targetPoint" />
          </mxGeometry>
        </mxCell>
        <mxCell id="vUQXYTvta-El19TbxOo7-18" value="CARRITOS" style="rounded=0;whiteSpace=wrap;html=1;" parent="1" vertex="1">
          <mxGeometry x="200" y="90" width="90" height="40" as="geometry" />
        </mxCell>
        <mxCell id="vUQXYTvta-El19TbxOo7-19" value="" style="endArrow=none;html=1;rounded=0;entryX=0;entryY=0.5;entryDx=0;entryDy=0;" parent="1" target="vUQXYTvta-El19TbxOo7-7" edge="1">
          <mxGeometry relative="1" as="geometry">
            <mxPoint x="410" y="110" as="sourcePoint" />
            <mxPoint x="510" y="110" as="targetPoint" />
          </mxGeometry>
        </mxCell>
        <mxCell id="vUQXYTvta-El19TbxOo7-7" value="" style="shape=rhombus;perimeter=rhombusPerimeter;whiteSpace=wrap;html=1;align=center;" parent="1" vertex="1">
          <mxGeometry x="380" y="90" width="90" height="40" as="geometry" />
        </mxCell>
        <mxCell id="vUQXYTvta-El19TbxOo7-20" value="" style="shape=rhombus;perimeter=rhombusPerimeter;whiteSpace=wrap;html=1;align=center;" parent="1" vertex="1">
          <mxGeometry x="740" y="90" width="90" height="40" as="geometry" />
        </mxCell>
        <mxCell id="vUQXYTvta-El19TbxOo7-21" value="" style="shape=rhombus;perimeter=rhombusPerimeter;whiteSpace=wrap;html=1;align=center;" parent="1" vertex="1">
          <mxGeometry x="555" y="230" width="90" height="40" as="geometry" />
        </mxCell>
        <mxCell id="vUQXYTvta-El19TbxOo7-22" value="" style="endArrow=none;html=1;rounded=0;entryX=0;entryY=0.5;entryDx=0;entryDy=0;exitX=1;exitY=0.5;exitDx=0;exitDy=0;" parent="1" source="vUQXYTvta-El19TbxOo7-18" target="vUQXYTvta-El19TbxOo7-7" edge="1">
          <mxGeometry relative="1" as="geometry">
            <mxPoint x="530" y="270" as="sourcePoint" />
            <mxPoint x="690" y="270" as="targetPoint" />
          </mxGeometry>
        </mxCell>
        <mxCell id="DDtvkitYRXSJ4U-pzp1e-6" value="USUARIOS: Un usuario puede tener un carrito y muchos favoritos&lt;br&gt;CARRITOS: Un carrito puede contener muchos productos y pertenece a un usuario&lt;br&gt;FAVORITOS: Los favoritos pertenecen a un usuario y contienen muchos productos" style="text;strokeColor=none;fillColor=#6a00ff;align=left;verticalAlign=middle;rounded=1;fontColor=#ffffff;whiteSpace=wrap;labelBackgroundColor=none;labelBorderColor=none;html=1;fontStyle=0;shadow=0;glass=0;" parent="1" vertex="1">
          <mxGeometry x="373.75" y="415" width="452.5" height="70" as="geometry" />
        </mxCell>
      </root>
    </mxGraphModel>
  </diagram>
</mxfile>
